<svg width="1280" height="900" viewBox="0 0 1280 900" fill="none" xmlns="http://www.w3.org/2000/svg">
  <defs>
    <linearGradient id="bg" x1="640" y1="0" x2="640" y2="900" gradientUnits="userSpaceOnUse">
      <stop stop-color="#071324"/>
      <stop offset="1" stop-color="#03070E"/>
    </linearGradient>
    <linearGradient id="glass" x1="70" y1="58" x2="1180" y2="826" gradientUnits="userSpaceOnUse">
      <stop stop-color="white" stop-opacity="0.08"/>
      <stop offset="1" stop-color="white" stop-opacity="0.03"/>
    </linearGradient>
    <linearGradient id="card" x1="0" y1="0" x2="0" y2="1">
      <stop stop-color="#172A4D"/>
      <stop offset="1" stop-color="#09111C"/>
    </linearGradient>
  </defs>

  <rect width="1280" height="900" rx="32" fill="url(#bg)"/>
  <rect x="52" y="46" width="1176" height="808" rx="36" fill="url(#glass)" stroke="#FFFFFF" stroke-opacity="0.14"/>

  <text x="92" y="118" fill="#7ED6E7" font-family="Georgia, serif" font-size="20" letter-spacing="4">EXAMPLE GENERATED READING</text>
  <text x="92" y="188" fill="#F8E8C1" font-family="Georgia, serif" font-size="60" font-weight="700">A spread that feels alive</text>
  <text x="92" y="236" fill="#DCCCA8" font-family="Georgia, serif" font-size="28">The Fool  ·  Justice  ·  The Star</text>

  <g transform="translate(88 292)">
    <rect width="314" height="274" rx="30" fill="#0A1321" stroke="#22334E"/>
    <rect x="24" y="24" width="266" height="160" rx="22" fill="url(#card)" stroke="#E8C88A" stroke-opacity="0.42"/>
    <circle cx="157" cy="104" r="42" stroke="#E8C88A" stroke-width="3"/>
    <path d="M157 63L170 88L198 92L178 111L182 139L157 126L132 139L136 111L116 92L144 88L157 63Z" stroke="#7ED6E7" stroke-width="2.4"/>
    <text x="24" y="216" fill="#E8C88A" font-family="Georgia, serif" font-size="18" letter-spacing="2">PAST</text>
    <text x="24" y="250" fill="#F8E8C1" font-family="Georgia, serif" font-size="34">The Fool</text>
    <text x="24" y="286" fill="#DCCCA8" font-family="Georgia, serif" font-size="24">A bold start. A leap first.</text>
  </g>

  <g transform="translate(482 292)">
    <rect width="314" height="274" rx="30" fill="#0A1321" stroke="#22334E"/>
    <rect x="24" y="24" width="266" height="160" rx="22" fill="url(#card)" stroke="#7ED6E7" stroke-opacity="0.42"/>
    <circle cx="157" cy="104" r="42" stroke="#7ED6E7" stroke-width="3"/>
    <path d="M157 66V142M125 88H189M125 120H189" stroke="#F8E8C1" stroke-width="2.5"/>
    <text x="24" y="216" fill="#E8C88A" font-family="Georgia, serif" font-size="18" letter-spacing="2">PRESENT</text>
    <text x="24" y="250" fill="#F8E8C1" font-family="Georgia, serif" font-size="34">Justice</text>
    <text x="24" y="286" fill="#DCCCA8" font-family="Georgia, serif" font-size="24">Clear truth. Clean choice.</text>
  </g>

  <g transform="translate(876 292)">
    <rect width="314" height="274" rx="30" fill="#0A1321" stroke="#22334E"/>
    <rect x="24" y="24" width="266" height="160" rx="22" fill="url(#card)" stroke="#E8C88A" stroke-opacity="0.42"/>
    <circle cx="157" cy="104" r="42" stroke="#E8C88A" stroke-width="3"/>
    <path d="M157 71L164 92H186L168 105L175 127L157 114L139 127L146 105L128 92H150L157 71Z" fill="#7ED6E7"/>
    <circle cx="117" cy="84" r="4" fill="#F8E8C1"/>
    <circle cx="196" cy="91" r="4" fill="#F8E8C1"/>
    <text x="24" y="216" fill="#E8C88A" font-family="Georgia, serif" font-size="18" letter-spacing="2">FUTURE</text>
    <text x="24" y="250" fill="#F8E8C1" font-family="Georgia, serif" font-size="34">The Star</text>
    <text x="24" y="286" fill="#DCCCA8" font-family="Georgia, serif" font-size="24">Hope returns. The path lifts.</text>
  </g>

  <g transform="translate(88 618)">
    <rect width="1102" height="196" rx="30" fill="#0A1321" stroke="#22334E"/>
    <text x="34" y="50" fill="#F8E8C1" font-family="Georgia, serif" font-size="34">What the game says</text>
    <text x="34" y="96" fill="#DCCCA8" font-family="Georgia, serif" font-size="28">You began with instinct and courage. Right now the spread asks for honesty, balance,</text>
    <text x="34" y="134" fill="#DCCCA8" font-family="Georgia, serif" font-size="28">and facts. Because The Star closes the story, the next chapter looks lighter if you face</text>
    <text x="34" y="172" fill="#DCCCA8" font-family="Georgia, serif" font-size="28">the truth directly instead of drifting around it.</text>
    <circle cx="1028" cy="74" r="36" fill="#E8C88A" fill-opacity="0.12" stroke="#E8C88A" stroke-opacity="0.4"/>
    <path d="M1028 48L1035 67H1056L1039 79L1046 98L1028 86L1010 98L1017 79L1000 67H1021L1028 48Z" fill="#7ED6E7"/>
  </g>
</svg>
